# xmcd
#
# Track frame offsets: 
#        182
#        19502
#        35680
#        49352
#        65195
#        87072
#        102337
#        114712
#        138112
#        154852
#        170850
#        186505
#        203307
#        221105
#        239015
#
# Disc length: 3449 seconds
#
# Revision: 2
# Processed by: cddbd v1.5.2PL0 Copyright (c) Steve Scherf et al.
# Submitted via: ExactAudioCopyFreeDBPlugin 1.0
#
DISCID=df0d770f
DTITLE=Various Artist - Sweet '70s Soul
DYEAR=2002
DGENRE=Soul
TTITLE0=Al Green - Here I Am (Come and Take Me)
TTITLE1=The O'Jays - I Love Music
TTITLE2=The Jackson 5 - Never Can Say Goodbye
TTITLE3=Stephanie Mills - Never Knew Love Like This Before
TTITLE4=The Commodores - Lady (You Bring Me Up)
TTITLE5=The Main Ingredient - Everybody Plays the Fool, Sometime
TTITLE6=Jean Knight - Mr. Big Stuff
TTITLE7=The Chi-Lites - Have You Seen Her
TTITLE8=Chic - Good Times
TTITLE9=The Staple Singers - Respect Yourself
TTITLE10=Al Wilson - Show and Tell
TTITLE11=Gladys Knight and The Pips - Best Thing That Ever Happened to M
TTITLE11=e
TTITLE12=The Spinners - Then Came You
TTITLE13=The Average White Band - Pick Up the Pieces
TTITLE14=Sylvia - Pillow Talk
EXTD=
EXTT0=
EXTT1=
EXTT2=
EXTT3=
EXTT4=
EXTT5=
EXTT6=
EXTT7=
EXTT8=
EXTT9=
EXTT10=
EXTT11=
EXTT12=
EXTT13=
EXTT14=
PLAYORDER=
